<svg width="3353" height="530" viewBox="0 0 3353 530" fill="none" xmlns="http://www.w3.org/2000/svg">
<path d="M103.702 426.949L17.7819 522.042C11.4874 528.972 0 524.46 0 514.95V497.221V499.961V422.92C0 420.341 0.944174 417.924 2.67516 415.99L89.5391 319.608L101.971 305.908C108.108 299.139 118.179 299.139 124.159 305.908L136.59 319.608L225.185 417.924C225.185 417.924 225.657 418.085 225.815 417.924L314.41 319.608L326.841 305.908C332.978 299.139 343.05 299.139 349.029 305.908L361.461 319.608L448.325 415.99C450.056 417.924 451 420.341 451 422.92V499.961V497.221V514.95C451 524.46 439.513 529.134 433.218 522.042L347.298 426.949C342.105 421.147 333.608 421.147 328.415 426.949L243.439 521.075C233.525 532.196 217.16 532.196 207.089 521.075L122.113 426.949C116.92 421.147 108.423 421.147 103.23 426.949H103.702Z" fill="#1E5BD6"/>
<path d="M225.666 0C151.705 0 91.4355 61.7296 91.4355 137.481C91.4355 154.727 94.5828 171.65 100.72 187.767C106.7 203.562 115.512 217.746 126.527 230.156L225.036 339.432C225.036 339.432 225.351 339.593 225.508 339.593C225.665 339.593 225.823 339.593 225.98 339.432L324.017 230.64C335.347 218.068 344.159 203.562 350.296 187.767C356.433 171.65 359.581 154.727 359.581 137.481C359.581 61.7296 299.311 0 225.351 0L225.666 0Z" fill="#1E5BD6"/>
<path d="M265.477 82.6802L225.979 151.018L185.38 82.6802H158.471V207.267H188.684V139.897L218.268 189.216H232.746L262.487 138.124L262.644 207.267H292.701L292.386 82.6802H265.477Z" fill="white"/>
<path d="M1046.57 201.62H988.54V0.481445H605.443V424.888C605.443 440.625 607.902 454.887 612.82 467.673C617.738 480.459 625.115 491.278 633.967 500.622C642.819 509.474 654.13 516.851 666.916 521.769C679.702 526.686 693.964 529.145 709.701 529.145H988.54V294.566H1046.57V529.145H1150.83V0.481445H1046.57V201.62ZM884.283 442.1H721.012C713.143 442.1 709.209 438.166 709.209 430.297V87.0347H884.283V441.609V442.1Z" fill="#1E5BD6"/>
<path d="M1294.94 0.481445H1190.68V529.145H1294.94V0.481445Z" fill="#1E5BD6"/>
<path d="M1872.22 0.481445V442.1H1515.19C1508.31 442.1 1502.4 440.133 1498.47 435.707C1494.04 431.281 1492.08 425.871 1492.08 418.987V87.5266H1732.56V0.481445H1381.92V424.888C1381.92 440.625 1384.38 454.887 1389.29 467.673C1394.21 480.459 1401.59 491.278 1410.44 500.622C1419.29 509.474 1430.6 516.851 1443.39 521.769C1456.18 526.686 1470.44 529.145 1486.18 529.145H1982.38V0.481445H1872.22Z" fill="#1E5BD6"/>
<path d="M2069.45 299.484C2069.45 339.318 2101.42 371.284 2141.25 371.284H2313.38V442.1H2069.45V529.145H3352.51V442.1H2423.54V371.284H2667.46V284.239H2179.61V229.159H2667.46V0.481445H2069.45V87.5266H2557.3V142.606H2069.45V299.976V299.484Z" fill="#1E5BD6"/>
<path d="M2754 299.494C2754 339.329 2785.97 371.294 2825.8 371.294H3352.01V284.249H2864.16V87.0452H3352.01V0H2754V299.003V299.494Z" fill="#1E5BD6"/>
</svg>
