<svg width="120" height="120" viewBox="0 0 120 120" fill="none" xmlns="http://www.w3.org/2000/svg">
<path d="M91.9171 30.7316C91.9171 44.7164 70.2486 66.1443 62.6127 73.2619C61.1479 74.622 58.8337 74.622 57.3689 73.2619C49.7329 66.1443 28.0645 44.7164 28.0645 30.7316C28.0645 13.7595 42.3656 0 59.9951 0C77.6246 0 91.9171 13.7595 91.9171 30.7316Z" fill="#1E5BD6"/>
<path d="M44.6797 18.4653H52.4803L60.0903 32.9258L67.7956 18.4653H75.3102V48.0371H68.281V31.4405L62.7945 43.3977H57.5941L51.6223 31.8077V48.0287H44.6884V18.4653H44.6797Z" fill="white"/>
<path d="M0 92.9293V115.091C0 117.052 2.46154 118.029 3.90033 116.643L28.143 93.3047C29.0358 92.4453 30.4832 92.4453 31.3759 93.3047L58.4355 119.355C59.3283 120.215 60.7757 120.215 61.6685 119.355L89.8895 92.1866C90.8169 91.2938 92.325 91.3355 93.2004 92.2701L116.022 116.66C117.426 118.154 120 117.202 120 115.192V91.4607C120 90.8766 119.757 90.3175 119.333 89.9087L92.0217 63.6162C91.1029 62.7317 89.6035 62.7651 88.7281 63.6829L61.7118 91.9196C60.8017 92.8792 59.2243 92.8625 58.3315 91.8946L32.26 63.7497C31.3846 62.7984 29.8505 62.7651 28.9231 63.6746L0.65872 91.3939C0.242685 91.8028 0.00866593 92.3618 0.00866593 92.9376L0 92.9293Z" fill="#1E5BD6"/>
</svg>
