<svg width="200" height="40" viewBox="0 0 200 40" fill="none" xmlns="http://www.w3.org/2000/svg">
<path d="M7.803 32.1255L1.338 39.2807C0.864369 39.8022 0 39.4626 0 38.7471V37.4131V37.6192V31.8223C0 31.6283 0.0710441 31.4464 0.201292 31.3008L6.73734 24.0486L7.67276 23.0178C8.13454 22.5084 8.89235 22.5084 9.34229 23.0178L10.2777 24.0486L16.944 31.4464C16.944 31.4464 16.9795 31.4585 16.9914 31.4464L23.6577 24.0486L24.5931 23.0178C25.0549 22.5084 25.8127 22.5084 26.2626 23.0178L27.198 24.0486L33.7341 31.3008C33.8643 31.4464 33.9354 31.6283 33.9354 31.8223V37.6192V37.4131V38.7471C33.9354 39.4626 33.071 39.8143 32.5974 39.2807L26.1324 32.1255C25.7416 31.6889 25.1022 31.6889 24.7115 32.1255L18.3175 39.2079C17.5716 40.0447 16.3401 40.0447 15.5823 39.2079L9.18836 32.1255C8.79762 31.6889 8.15822 31.6889 7.76748 32.1255H7.803Z" fill="#1E5BD6"/>
<path d="M16.9668 0C22.5267 0.00629024 27.0557 4.64868 27.0557 10.3447C27.0557 11.6424 26.8192 12.9162 26.3574 14.1289C25.8957 15.3173 25.2323 16.4086 24.3799 17.3545L17.0029 25.54C16.9912 25.552 16.9795 25.5527 16.9678 25.5527C16.9559 25.5527 16.9316 25.54 16.9316 25.54L9.51953 17.3184C8.6908 16.3847 8.02807 15.3172 7.57812 14.1289C7.11634 12.9162 6.87891 11.6424 6.87891 10.3447C6.87891 4.64904 11.4073 0.0068756 16.9668 0ZM11.9229 15.5957H14.1963V10.5264L16.4229 14.2373H17.5117L19.75 10.3926L19.7617 15.5957H22.0234L22 6.22168H19.9746L17.0029 11.3633L13.9482 6.22168H11.9229V15.5957Z" fill="#1E5BD6"/>
<path d="M66.2761 15.1611H63.061V0.0273438H41.8359V31.96C41.8359 33.144 41.9722 34.2171 42.2446 35.1791C42.5171 36.1412 42.9258 36.9552 43.4162 37.6583C43.9067 38.3243 44.5333 38.8793 45.2418 39.2493C45.9502 39.6194 46.7403 39.8044 47.6122 39.8044H63.061V22.1545H66.2761V39.8044H72.0523V0.0273438H66.2761V15.1611ZM57.2847 33.255H48.2389C47.8029 33.255 47.585 32.959 47.585 32.367V6.53967H57.2847V33.218V33.255Z" fill="#1E5BD6"/>
<path d="M79.9613 0.0273438H74.1777V39.8044H79.9613V0.0273438Z" fill="#1E5BD6"/>
<path d="M113.49 0V33.2277H92.8563C92.4584 33.2277 92.1174 33.0797 91.89 32.7467C91.6342 32.4137 91.5205 32.0066 91.5205 31.4886V6.54934H105.418V0H85.1543V31.9326C85.1543 33.1167 85.2964 34.1897 85.5806 35.1518C85.8648 36.1138 86.2911 36.9279 86.8027 37.6309C87.3143 38.297 87.9679 38.852 88.7069 39.222C89.4458 39.592 90.27 39.777 91.1795 39.777H119.856V0H113.49Z" fill="#1E5BD6"/>
<path d="M124.576 22.5059C124.576 25.5031 126.455 27.9082 128.797 27.9082H138.915V33.2365H124.576V39.7858H199.999V33.2365H145.39V27.9082H159.729V21.3589H131.052V17.2147H159.729V0.00878906H124.576V6.55813H153.254V10.7023H124.576V22.5429V22.5059Z" fill="#1E5BD6"/>
<path d="M164.826 22.573C164.826 25.5742 166.706 27.9825 169.049 27.9825H200V21.4245H171.306V6.56687H200V0.00878906H164.826V22.536V22.573Z" fill="#1E5BD6"/>
</svg>
